<?xml version="1.0" ?><svg height="36" id="svg6390" version="1.1" width="36" xmlns="http://www.w3.org/2000/svg" xmlns:cc="http://creativecommons.org/ns#" xmlns:dc="http://purl.org/dc/elements/1.1/" xmlns:inkscape="http://www.inkscape.org/namespaces/inkscape" xmlns:rdf="http://www.w3.org/1999/02/22-rdf-syntax-ns#" xmlns:sodipodi="http://sodipodi.sourceforge.net/DTD/sodipodi-0.dtd" xmlns:svg="http://www.w3.org/2000/svg"><defs id="defs6392"/><g id="layer1" transform="translate(0,-1016.3622)"><path d="m 10.0002,1019.3622 c 0,6e-4 0,0 0.031,0 l 15.9376,0 c 0.027,0 0.028,6e-4 0.031,0 l 0,1 -16,0 z m 0,2 16,0 0,1 -16,0 z m 0,2 16,0 0,1 c 0,-9e-4 0,0 -0.031,0 l -15.9376,0 c -0.027,0 -0.028,-9e-4 -0.031,0 z m 5,2 6,0 0,1 -6,0 z m 2,2 2,0 0,2 -2,0 z m -1,3 0.6992,0 2.6016,0 0.6992,0 0,17 -0.6992,0 -2.6016,0 -0.6992,0 z m 1,18 2,0 0,1 -2,0 z" id="rect7015" style="font-size:medium;font-style:normal;font-variant:normal;font-weight:normal;font-stretch:normal;text-indent:0;text-align:start;text-decoration:none;line-height:normal;letter-spacing:normal;word-spacing:normal;text-transform:none;direction:ltr;block-progression:tb;writing-mode:lr-tb;text-anchor:start;baseline-shift:baseline;opacity:0.98999999;color:#000000;fill:#000000;fill-opacity:1;fill-rule:nonzero;stroke:none;visibility:visible;display:inline;overflow:visible;enable-background:accumulate;font-family:sans-serif"/></g></svg>