<?xml version="1.0" encoding="utf-8"?>
<!-- Generator: Adobe Illustrator 18.1.1, SVG Export Plug-In . SVG Version: 6.00 Build 0)  -->
<!DOCTYPE svg PUBLIC "-//W3C//DTD SVG 20010904//EN"
 "http://www.w3.org/TR/2001/REC-SVG-20010904/DTD/svg10.dtd">
<svg version="1.0" xmlns="http://www.w3.org/2000/svg"
viewBox="0 0 512 512" enable-background="new 0 0 512 512" xml:space="preserve">

<g transform="translate(0.000000,512.000000) scale(0.100000,-0.100000)"
fill="#000000" stroke="none">
<path d="M920 4706 c-75 -21 -146 -63 -199 -116 -28 -28 -51 -55 -51 -60 0 -6
225 -10 596 -10 l595 0 -27 35 c-38 50 -91 90 -171 128 l-68 32 -315 2 c-232
1 -327 -2 -360 -11z"/>
<path d="M4303 4452 c-1106 -965 -1468 -1284 -1468 -1293 0 -11 435 -527 445
-528 3 0 327 444 720 987 514 710 715 996 718 1019 3 24 -2 38 -22 57 -53 54
-57 51 -393 -242z"/>
<path d="M560 4347 c-49 -16 -133 -102 -148 -153 -15 -52 -16 -225 0 -275 14
-50 69 -114 119 -139 37 -19 62 -20 730 -20 775 0 724 -5 798 75 53 57 64 103
59 245 -4 128 -14 155 -74 214 -69 67 -54 66 -788 65 -451 -1 -672 -5 -696
-12z"/>
<path d="M2118 3669 l-28 -21 0 -454 0 -454 246 -353 246 -353 155 -24 156
-24 196 -224 c108 -124 198 -229 200 -234 2 -5 -8 -35 -23 -67 -63 -142 -79
-346 -38 -494 73 -257 247 -441 503 -528 87 -30 104 -33 224 -33 184 0 311 39
448 138 464 333 406 1035 -107 1293 -148 75 -351 98 -510 59 l-70 -17 -27 28
c-15 15 -365 422 -779 903 -413 481 -754 876 -758 877 -4 1 -19 -7 -34 -18z
m553 -952 c45 -30 71 -82 65 -130 -16 -133 -179 -170 -253 -58 -79 118 70 267
188 188z m1378 -1158 c79 -18 150 -60 211 -125 81 -87 104 -149 105 -279 0
-94 -2 -105 -34 -170 -44 -88 -108 -152 -196 -196 -65 -32 -76 -34 -170 -34
-130 1 -192 24 -279 105 -171 160 -180 409 -20 580 95 102 249 150 383 119z"/>
<path d="M590 3369 c0 -176 3 -219 13 -212 88 68 544 418 551 425 6 4 -119 8
-277 8 l-287 0 0 -221z"/>
<path d="M1008 3267 l-418 -322 0 -244 c0 -193 3 -241 13 -234 6 6 308 238
670 517 l657 508 0 49 0 49 -252 0 -253 0 -417 -323z"/>
<path d="M1258 2772 l-668 -517 0 -244 c0 -193 3 -241 13 -234 6 5 308 238
670 517 l657 508 0 244 c0 134 -1 244 -2 243 -2 0 -303 -233 -670 -517z"/>
<path d="M1260 2083 c-407 -315 -666 -522 -668 -534 -3 -18 6 -19 291 -19
l294 0 377 291 376 290 0 245 c0 134 -1 244 -2 243 -2 0 -302 -233 -668 -516z"/>
<path d="M2090 2142 c0 -172 3 -312 8 -312 4 0 63 56 131 124 l124 125 -18 28
c-32 49 -227 328 -236 338 -5 5 -9 -120 -9 -303z"/>
<path d="M1682 1719 l-244 -189 246 0 246 0 0 190 c0 105 -1 190 -2 189 -2 0
-113 -86 -246 -190z"/>
<path d="M532 1343 c-45 -22 -106 -94 -120 -141 -16 -51 -15 -223 0 -276 16
-55 99 -138 154 -154 31 -9 211 -12 696 -12 728 0 711 -1 782 67 61 60 70 85
74 213 5 142 -6 188 -59 245 -74 80 -23 75 -801 75 -619 0 -697 -2 -726 -17z"/>
<path d="M670 590 c0 -20 99 -106 156 -137 93 -49 145 -55 474 -51 l295 3 67
32 c82 38 128 73 169 124 l31 39 -596 0 c-371 0 -596 -4 -596 -10z"/>
</g>
</svg>
