<?xml version="1.0" standalone="no"?>
<!DOCTYPE svg PUBLIC "-//W3C//DTD SVG 20010904//EN"
 "http://www.w3.org/TR/2001/REC-SVG-20010904/DTD/svg10.dtd">
<svg version="1.0" xmlns="http://www.w3.org/2000/svg"
 width="64.000000pt" height="64.000000pt" viewBox="0 0 64.000000 64.000000"
 preserveAspectRatio="xMidYMid meet">

<g transform="translate(0.000000,64.000000) scale(0.100000,-0.100000)"
fill="#000000" stroke="none">
<path d="M424 585 c-7 -17 26 -115 38 -115 4 0 3 12 -2 26 -12 31 -13 44 -1
44 4 0 13 -15 19 -32 l10 -33 1 33 c1 17 6 32 11 32 6 0 10 -15 11 -32 l1 -33
10 33 c6 17 15 32 19 32 12 0 11 -13 -1 -44 -5 -14 -6 -26 -2 -26 12 0 45 98
38 115 -4 11 -23 15 -76 15 -53 0 -72 -4 -76 -15z"/>
<path d="M460 413 c0 -21 3 -48 6 -60 9 -31 34 -29 34 2 0 34 20 32 21 -2 0
-25 1 -26 9 -8 5 11 9 39 9 63 l1 42 -40 0 c-40 0 -40 0 -40 -37z m60 2 c0 -8
-4 -15 -10 -15 -5 0 -10 7 -10 15 0 8 5 15 10 15 6 0 10 -7 10 -15z"/>
<path d="M51 394 c-12 -14 -12 -17 0 -25 11 -7 10 -9 -3 -9 -10 0 -18 -4 -18
-9 0 -5 8 -12 18 -14 16 -4 16 -5 0 -6 -10 0 -18 -5 -18 -11 0 -5 8 -10 18
-10 14 0 15 -2 2 -10 -13 -8 -13 -11 -1 -19 10 -6 12 -21 7 -55 -7 -42 -6 -46
14 -46 20 0 21 4 14 46 -5 34 -3 49 7 55 12 8 12 11 -1 19 -13 8 -12 10 3 10
9 0 17 4 17 9 0 5 -8 12 -17 14 -17 4 -17 5 0 6 9 0 17 6 17 11 0 6 -8 10 -17
10 -15 0 -15 2 -4 9 12 8 12 12 -2 25 -19 19 -18 19 -36 0z"/>
<path d="M175 330 c3 -5 13 -10 21 -10 8 0 12 5 9 10 -3 6 -13 10 -21 10 -8 0
-12 -4 -9 -10z"/>
<path d="M170 274 c0 -27 4 -34 20 -34 15 0 20 7 20 29 0 20 -6 30 -20 34 -17
4 -20 0 -20 -29z"/>
<path d="M474 273 c3 -21 8 -57 12 -79 3 -24 1 -51 -5 -63 -9 -16 -9 -21 0
-21 7 0 10 -13 7 -35 -3 -27 0 -35 12 -35 14 0 18 16 23 98 12 172 12 172 -24
172 -30 0 -31 -1 -25 -37z"/>
<path d="M305 291 c-26 -11 -63 -52 -65 -71 -1 -8 -2 -36 -1 -62 1 -37 5 -48
17 -48 12 0 14 5 9 18 -25 58 -10 114 36 137 93 49 176 -37 134 -137 -4 -11
-3 -18 4 -18 18 0 33 51 27 90 -11 68 -99 118 -161 91z"/>
<path d="M346 251 c-9 -14 -46 -122 -46 -133 0 -26 21 10 40 68 20 59 23 92 6
65z"/>
<path d="M286 228 c-17 -24 -21 -73 -7 -82 4 -3 14 13 20 35 7 23 15 47 18 55
8 22 -14 16 -31 -8z"/>
<path d="M360 184 c-21 -62 -21 -89 0 -68 14 14 49 121 43 128 -14 14 -23 2
-43 -60z"/>
<path d="M170 210 c0 -5 9 -10 20 -10 11 0 20 5 20 10 0 6 -9 10 -20 10 -11 0
-20 -4 -20 -10z"/>
<path d="M410 185 c-5 -14 -12 -38 -16 -53 l-5 -27 20 24 c12 13 21 36 21 52
0 36 -7 37 -20 4z"/>
<path d="M160 170 c0 -5 14 -10 30 -10 17 0 30 5 30 10 0 6 -13 10 -30 10 -16
0 -30 -4 -30 -10z"/>
<path d="M45 150 c-4 -6 7 -10 25 -10 18 0 29 4 25 10 -3 6 -15 10 -25 10 -10
0 -22 -4 -25 -10z"/>
<path d="M160 90 c0 -49 1 -50 30 -50 29 0 30 1 30 50 0 49 -1 50 -30 50 -29
0 -30 -1 -30 -50z"/>
<path d="M40 80 c0 -38 2 -40 30 -40 28 0 30 2 30 40 0 38 -2 40 -30 40 -28 0
-30 -2 -30 -40z"/>
<path d="M242 68 c3 -22 8 -23 102 -26 99 -3 126 5 126 34 0 21 -54 17 -75 -6
-23 -26 -67 -26 -90 0 -10 11 -29 20 -42 20 -20 0 -24 -4 -21 -22z"/>
<path d="M320 80 c0 -5 13 -10 29 -10 17 0 33 5 36 10 4 6 -8 10 -29 10 -20 0
-36 -4 -36 -10z"/>
</g>
</svg>
