<svg version="1.0" xmlns="http://www.w3.org/2000/svg" viewBox="0 0 512 512" xml:space="preserve"><path d="M92.5 41.4c-15.4 3.9-27.4 15.6-31.9 31-1 3.4-1.8 4.2-4.6 5-4.8 1.4-13.3 10.1-14.8 15.2-1.5 5.3-1.6 22.5 0 27.6 1.6 5.4 7.9 12.2 13.3 14.4l4.5 1.9v239.3l-3.2.7c-4.4 1-13 9.9-14.6 15.1-1.6 5.3-1.6 22.5 0 27.8 1.5 5.1 10 13.8 14.8 15.2 2.8.8 3.6 1.6 4.6 5 4.5 15.4 17.9 28.1 33.2 31.3 7.1 1.5 57.4 1.5 64.4 0 15.1-3.2 27.2-13.9 32.4-28.7 2.1-6.2 2.6-6.8 6.2-8 4.5-1.5 10.3-6.7 12.9-11.5 2.2-4.1 3.1-24.1 1.3-30.7-1.4-5.5-10.1-14.4-14.9-15.5l-3.1-.7V346.5l21.4-21.4c18.2-18.2 21.6-21.2 23.2-20.4 1.1.6 13.1 2.7 26.8 4.9l24.9 3.8 19.6 22.4c10.8 12.4 19.8 22.9 19.9 23.3.2.5-1 4.2-2.6 8.2-4.2 10.2-5.6 17.6-5.5 29.7.3 39.8 31.1 72.2 71.1 74.7 36 2.2 68-21.2 77.8-56.8 2.5-9.1 2.5-29.1 0-37.9-7.8-27-27.6-46.7-54.3-54.2-9.9-2.7-26.5-2.9-36.7-.4-4.9 1.2-7.2 1.3-8.1.6-1.9-1.6-50.9-58.9-51.3-60-.2-.5 34-48.3 75.9-106.2 55.1-76 76.4-106.2 76.7-108.5.5-4.2-3.3-8.3-7.7-8.3-3.2 0-.7-2.1-153.3 131.3-21.9 19.1-40.1 34.7-40.5 34.6-.5 0-10-10.8-21.3-24-27.8-32.6-27.1-31.9-30.7-31.9-5.2 0-9.8 6.5-7.7 11 1.7 3.5 152.7 178.5 155.2 179.9 2.2 1.2 3.5 1 11.6-1.5 22.5-6.9 44.2-1.7 60.7 14.6 12.8 12.6 18.8 28.3 17.6 45.9-1 15.3-6.5 27.1-17.6 38.2-11.1 11.1-22.9 16.6-38.2 17.6-17.6 1.2-33.3-4.8-45.9-17.6-12.1-12.2-17.5-25.4-17.4-42.6 0-10.4 2-18 7-27.5 5.8-10.9 6.7-9.1-21.1-40.9-15.6-17.8-25.4-28.3-26.9-28.7-1.4-.3-13.2-2.3-26.3-4.3l-23.8-3.7-26.2-37.5-26.2-37.4v-39.7l-.1-39.6 3.1-.7c4.8-1.1 13.5-10 14.9-15.5 1.8-6.6.9-26.6-1.3-30.7-2.6-4.8-8.4-10-12.9-11.5-3.6-1.2-4.1-1.8-6.2-8-4.3-12.2-11.6-20.1-24.3-26.1l-6.8-3.2-31-.2c-22.4-.1-32.4.2-36 1.1zm65.1 16.1c2.7.8 6.7 2.9 8.8 4.7 3.6 2.9 9.6 11.1 9.6 13 0 .4-22.5.8-49.9.8h-50l1.1-3.3c1.8-5.1 10.7-13.3 16.4-15.1 7.1-2.1 56.8-2.3 64-.1zm35.9 37c2.3 2.2 2.5 3.2 2.5 12 0 8.9-.2 9.8-2.5 12.1L191 121l-65.6-.2-65.6-.3-1.9-2.4c-1.6-1.9-1.9-4-1.9-11.8 0-8.6.2-9.6 2.5-11.8l2.4-2.5h130.2l2.4 2.5zm213.7 18.2c-4.3 6-28.4 39.3-53.6 74.1-37 51.1-46.1 63.1-47.1 62-.6-.7-6.7-7.8-13.5-15.7l-12.3-14.4 5.3-4.6c3-2.5 33.1-28.8 66.9-58.4 33.8-29.5 61.7-53.7 61.8-53.7.2 0-3.2 4.8-7.5 10.7zM136 137.4c0 .3-11.8 9.6-26.2 20.7-14.5 11.1-28.2 21.8-30.5 23.7l-4.3 3.4V137h30.5c16.8 0 30.5.2 30.5.4zm41 18.8-.1 19.3-21.7 16.6c-11.9 9.2-34.9 26.9-50.9 39.3L75 254v-48.7l44.2-34.2 44.1-34.1H177v19.2zm-.1 64v24.3l-43.2 33.3C109.9 296 87 313.7 82.8 317.1l-7.8 6v-48.9l50.6-39.1c27.9-21.5 50.8-39.1 51-39.1.2 0 .4 10.9.3 24.2zm23 32.8c3.4 5 6 9.4 5.7 9.9-.3.5-3.3 3.2-6.6 6.1l-6 5.2v-15.1c0-8.3.2-15.1.4-15.1s3.2 4.1 6.5 9zm-23 36.2v24.3L137 344.2 97 375H75V343.3l50.6-39.2c27.9-21.5 50.8-39.1 51-39.1.2 0 .4 10.9.3 24.2zm43.3-7c2.5 3.5 4.7 6.8 5.1 7.4.3.6-6.8 8.4-15.9 17.5L193 323.5v-28.1l11.2-9.7c6.1-5.3 11.3-9.7 11.4-9.7.1 0 2.2 2.8 4.6 6.2zm-43.5 92.5c-.2.2-12.2.2-26.7.1l-26.2-.3 26.3-20.3 26.4-20.4.3 20.3c.1 11.1.1 20.4-.1 20.6zm16.8 18.8c2.3 2.2 2.5 3.2 2.5 12s-.2 9.8-2.5 12l-2.4 2.5H60.9l-2.4-2.5c-2.3-2.2-2.5-3.2-2.5-12s.2-9.8 2.5-12l2.4-2.5h130.2l2.4 2.5zM176 436.8c0 1.9-6 10.1-9.6 13-6.7 5.6-10.7 6.2-40.4 6.2-32.1 0-34.6-.5-42.5-8.3-2.8-2.9-5.6-6.7-6.3-8.5l-1.1-3.2h50c27.4 0 49.9.4 49.9.8z"/><path d="M247.9 247.9c-3.6 3.6-3.9 4.3-3.9 9.6s.3 6 3.9 9.6c3.6 3.6 4.3 3.9 9.6 3.9s6-.3 9.6-3.9c3.6-3.6 3.9-4.3 3.9-9.6s-.3-6-3.9-9.6c-3.6-3.6-4.3-3.9-9.6-3.9s-6 .3-9.6 3.9zM386.5 356.4c-20.3 4.9-34.1 25.5-30.8 45.9 1.6 9.4 5.7 16.9 12.9 23.7 8.8 8.1 14.9 10.4 27.9 10.5 9.3 0 10.5-.3 16.8-3.3 8.6-4.2 15.7-11.3 19.9-19.9 3-6.3 3.3-7.5 3.3-16.8-.1-13-2.4-19.1-10.5-27.9-10.7-11.4-24.8-15.8-39.5-12.2zm16.9 16c21.1 6.4 23.8 35.5 4.2 45.9-3.1 1.6-5.9 2.2-11.6 2.2-6.4 0-8.2-.4-12.3-2.8-18.6-11-15.7-37.9 5-45.3 4.9-1.7 8.9-1.7 14.7 0z"/></svg>