<svg version="1.0" xmlns="http://www.w3.org/2000/svg" width="682.667" height="682.667" viewBox="0 0 512 512"><path d="M92 41.4c-7.5 2.1-14.6 6.3-19.9 11.6-2.8 2.8-5.1 5.5-5.1 6 0 .6 22.5 1 59.6 1h59.5l-2.7-3.5c-3.8-5-9.1-9-17.1-12.8l-6.8-3.2-31.5-.2c-23.2-.1-32.7.2-36 1.1zM430.3 66.8c-110.6 96.5-146.8 128.4-146.8 129.3 0 1.1 43.5 52.7 44.5 52.8.3 0 32.7-44.4 72-98.7 51.4-71 71.5-99.6 71.8-101.9.3-2.4-.2-3.8-2.2-5.7-5.3-5.4-5.7-5.1-39.3 24.2zM56 77.3c-4.9 1.6-13.3 10.2-14.8 15.3-1.5 5.2-1.6 22.5 0 27.5 1.4 5 6.9 11.4 11.9 13.9 3.7 1.9 6.2 2 73 2 77.5 0 72.4.5 79.8-7.5 5.3-5.7 6.4-10.3 5.9-24.5-.4-12.8-1.4-15.5-7.4-21.4-6.9-6.7-5.4-6.6-78.8-6.5-45.1.1-67.2.5-69.6 1.2z"/><path d="m211.8 145.1-2.8 2.1V238l24.6 35.3 24.6 35.3 15.5 2.4 15.6 2.4 19.6 22.4c10.8 12.4 19.8 22.9 20 23.4.2.5-.8 3.5-2.3 6.7-6.3 14.2-7.9 34.6-3.8 49.4 7.3 25.7 24.7 44.1 50.3 52.8 8.7 3 10.4 3.3 22.4 3.3 18.4 0 31.1-3.9 44.8-13.8 46.4-33.3 40.6-103.5-10.7-129.3-14.8-7.5-35.1-9.8-51-5.9l-7 1.7-2.7-2.8c-1.5-1.5-36.5-42.2-77.9-90.3-41.3-48.1-75.4-87.6-75.8-87.7-.4-.1-1.9.7-3.4 1.8zm55.3 95.2c4.5 3 7.1 8.2 6.5 13-1.6 13.3-17.9 17-25.3 5.8-7.9-11.8 7-26.7 18.8-18.8zm137.8 115.8c7.9 1.8 15 6 21.1 12.5 8.1 8.7 10.4 14.9 10.5 27.9 0 9.4-.2 10.5-3.4 17-4.4 8.8-10.8 15.2-19.6 19.6-6.5 3.2-7.6 3.4-17 3.4-13-.1-19.2-2.4-27.9-10.5-17.1-16-18-40.9-2-58 9.5-10.2 24.9-15 38.3-11.9zM59 175.1c0 17.6.3 21.9 1.3 21.2 8.8-6.8 54.4-41.8 55.1-42.5.6-.4-11.9-.8-27.7-.8H59v22.1zM100.8 185.3 59 217.5v24.4c0 19.3.3 24.1 1.3 23.4.6-.6 30.8-23.8 67-51.7l65.7-50.8V153h-50.5l-41.7 32.3zM125.8 234.8 59 286.5v24.4c0 19.3.3 24.1 1.3 23.4.6-.5 30.8-23.8 67-51.7l65.7-50.8v-24.4c0-13.4-.1-24.4-.2-24.3-.2 0-30.3 23.3-67 51.7zM126 303.7c-40.7 31.5-66.6 52.2-66.8 53.4-.3 1.8.6 1.9 29.1 1.9h29.4l37.7-29.1 37.6-29v-24.5c0-13.4-.1-24.4-.2-24.3-.2 0-30.2 23.3-66.8 51.6zM209 297.8c0 17.2.3 31.2.8 31.2.4 0 6.3-5.6 13.1-12.4l12.4-12.5-1.8-2.8c-3.2-4.9-22.7-32.8-23.6-33.8-.5-.5-.9 12-.9 30.3zM168.2 340.1 143.8 359H193v-19c0-10.5-.1-19-.2-18.9-.2 0-11.3 8.6-24.6 19zM53.2 377.7c-4.5 2.2-10.6 9.4-12 14.1-1.6 5.1-1.5 22.3 0 27.6 1.6 5.5 9.9 13.8 15.4 15.4 3.1.9 21.1 1.2 69.6 1.2 72.8 0 71.1.1 78.2-6.7 6.1-6 7-8.5 7.4-21.3.5-14.2-.6-18.8-5.9-24.5-7.4-8-2.3-7.5-80.1-7.5-61.9 0-69.7.2-72.6 1.7zM67 453c0 2 9.9 10.6 15.6 13.7 9.3 4.9 14.5 5.5 47.4 5.1l29.5-.3 6.7-3.2c8.2-3.8 12.8-7.3 16.9-12.4l3.1-3.9h-59.6c-37.1 0-59.6.4-59.6 1z"/></svg>