<svg version="1.0" xmlns="http://www.w3.org/2000/svg" width="85.333" height="85.333" viewBox="0 0 64 64"><path d="M42.4 5.5C41.7 7.2 45 17 46.2 17c.4 0 .3-1.2-.2-2.6-1.2-3.1-1.3-4.4-.1-4.4.4 0 1.3 1.5 1.9 3.2l1 3.3.1-3.3c.1-1.7.6-3.2 1.1-3.2.6 0 1 1.5 1.1 3.2l.1 3.3 1-3.3c.6-1.7 1.5-3.2 1.9-3.2 1.2 0 1.1 1.3-.1 4.4-.5 1.4-.6 2.6-.2 2.6 1.2 0 4.5-9.8 3.8-11.5C57.2 4.4 55.3 4 50 4s-7.2.4-7.6 1.5zM46 22.7c0 2.1.3 4.8.6 6 .9 3.1 3.4 2.9 3.4-.2 0-3.4 2-3.2 2.1.2 0 2.5.1 2.6.9.8.5-1.1.9-3.9.9-6.3L54 19h-4c-4 0-4 0-4 3.7zm6-.2c0 .8-.4 1.5-1 1.5-.5 0-1-.7-1-1.5s.5-1.5 1-1.5c.6 0 1 .7 1 1.5zM5.1 24.6c-1.2 1.4-1.2 1.7 0 2.5 1.1.7 1 .9-.3.9-1 0-1.8.4-1.8.9s.8 1.2 1.8 1.4c1.6.4 1.6.5 0 .6-1 0-1.8.5-1.8 1.1 0 .5.8 1 1.8 1 1.4 0 1.5.2.2 1s-1.3 1.1-.1 1.9c1 .6 1.2 2.1.7 5.5C4.9 45.6 5 46 7 46s2.1-.4 1.4-4.6c-.5-3.4-.3-4.9.7-5.5 1.2-.8 1.2-1.1-.1-1.9-1.3-.8-1.2-1 .3-1 .9 0 1.7-.4 1.7-.9s-.8-1.2-1.7-1.4c-1.7-.4-1.7-.5 0-.6.9 0 1.7-.6 1.7-1.1 0-.6-.8-1-1.7-1-1.5 0-1.5-.2-.4-.9 1.2-.8 1.2-1.2-.2-2.5-1.9-1.9-1.8-1.9-3.6 0zM17.5 31c.3.5 1.3 1 2.1 1s1.2-.5.9-1c-.3-.6-1.3-1-2.1-1s-1.2.4-.9 1zM17 36.6c0 2.7.4 3.4 2 3.4 1.5 0 2-.7 2-2.9 0-2-.6-3-2-3.4-1.7-.4-2 0-2 2.9zM47.4 36.7c.3 2.1.8 5.7 1.2 7.9.3 2.4.1 5.1-.5 6.3-.9 1.6-.9 2.1 0 2.1.7 0 1 1.3.7 3.5-.3 2.7 0 3.5 1.2 3.5 1.4 0 1.8-1.6 2.3-9.8C53.5 33 53.5 33 49.9 33c-3 0-3.1.1-2.5 3.7zM30.5 34.9C27.9 36 24.2 40.1 24 42c-.1.8-.2 3.6-.1 6.2.1 3.7.5 4.8 1.7 4.8s1.4-.5.9-1.8c-2.5-5.8-1-11.4 3.6-13.7 9.3-4.9 17.6 3.7 13.4 13.7-.4 1.1-.3 1.8.4 1.8 1.8 0 3.3-5.1 2.7-9-1.1-6.8-9.9-11.8-16.1-9.1z"/><path d="M34.6 38.9c-.9 1.4-4.6 12.2-4.6 13.3 0 2.6 2.1-1 4-6.8 2-5.9 2.3-9.2.6-6.5zM28.6 41.2c-1.7 2.4-2.1 7.3-.7 8.2.4.3 1.4-1.3 2-3.5.7-2.3 1.5-4.7 1.8-5.5.8-2.2-1.4-1.6-3.1.8zM36 45.6c-2.1 6.2-2.1 8.9 0 6.8 1.4-1.4 4.9-12.1 4.3-12.8-1.4-1.4-2.3-.2-4.3 6zM17 43c0 .5.9 1 2 1s2-.5 2-1c0-.6-.9-1-2-1s-2 .4-2 1zM41 45.5c-.5 1.4-1.2 3.8-1.6 5.3l-.5 2.7 2-2.4c1.2-1.3 2.1-3.6 2.1-5.2 0-3.6-.7-3.7-2-.4zM16 47c0 .5 1.4 1 3 1 1.7 0 3-.5 3-1 0-.6-1.3-1-3-1-1.6 0-3 .4-3 1zM4.5 49c-.4.6.7 1 2.5 1s2.9-.4 2.5-1c-.3-.6-1.5-1-2.5-1s-2.2.4-2.5 1zM16 55c0 4.9.1 5 3 5s3-.1 3-5-.1-5-3-5-3 .1-3 5zM4 56c0 3.8.2 4 3 4s3-.2 3-4-.2-4-3-4-3 .2-3 4zM24.2 57.2c.3 2.2.8 2.3 10.2 2.6 9.9.3 12.6-.5 12.6-3.4 0-2.1-5.4-1.7-7.5.6-2.3 2.6-6.7 2.6-9 0-1-1.1-2.9-2-4.2-2-2 0-2.4.4-2.1 2.2z"/><path d="M32 56c0 .5 1.3 1 2.9 1 1.7 0 3.3-.5 3.6-1 .4-.6-.8-1-2.9-1-2 0-3.6.4-3.6 1z"/></svg>